<svg width="1131" height="894" viewBox="0 0 1131 894" fill="none" xmlns="http://www.w3.org/2000/svg">
<g id="undraw_Ride_a_bicycle_2yok 1">
<g clip-path="url(#clip0)">
<g id="left-wheel">
<path id="Vector" d="M390.209 671.884C385.921 651.59 377.239 632.644 364.856 616.557C360.26 610.579 355.19 605.031 349.704 599.975C328.611 580.578 302.068 569.19 274.24 567.598C246.413 566.005 218.877 574.299 195.954 591.177C173.03 608.054 156.018 632.561 147.585 660.85C139.153 689.14 139.778 719.61 149.363 747.48C158.948 775.35 176.951 799.042 200.545 814.836C224.138 830.631 251.989 837.635 279.724 834.749C307.459 831.863 333.51 819.25 353.787 798.89C374.065 778.53 387.421 751.575 391.76 722.257C392.77 715.354 393.277 708.378 393.278 701.392C393.286 691.465 392.256 681.568 390.209 671.884ZM267.037 802.115C247.541 802.093 228.525 795.677 212.573 783.738C196.622 771.8 184.51 754.919 177.885 735.391C171.259 715.862 170.441 694.634 175.542 674.593C180.643 654.552 191.415 636.671 206.394 623.38C221.373 610.09 239.832 602.035 259.26 600.312C278.688 598.589 298.144 603.28 314.981 613.749C331.817 624.217 345.218 639.954 353.362 658.821C361.505 677.687 363.995 698.766 360.494 719.193C356.483 742.475 344.936 763.523 327.86 778.674C310.784 793.825 289.261 802.12 267.037 802.115V802.115Z" fill="#535461"/>
<path id="Vector_2" d="M272.918 816.567L266.213 705.025L266.074 704.786L259.316 707.292L228.221 803.926L178.766 766.582L257.541 705.754L257.616 705.515L258.065 705.344L263.144 701.415L180.552 652.09L160.32 675.779L163.528 697.987L258.504 699.832V702.11L161.753 700.265L158.096 675.05L185.791 642.637L227.227 591.16L227.964 593.289L236.733 583.04L269.304 589.258V587.88L271.442 587.948V589.668L319.946 598.916L274.725 695.276L268.127 700.367V700.937V701.574L372.705 662.761L360.29 766.639L271.538 706.426L268.416 704.558L320.748 794.393L272.918 816.567ZM268.641 709.125L274.896 813.196L317.722 793.402L268.641 709.125ZM182.476 766.559L227.162 800.304L256.397 709.49L182.476 766.559ZM270.501 703.169L272.736 704.501L358.654 762.812L370.203 666.155L270.501 703.169ZM262.909 694.969L265.593 699.581L266.064 699.217L269.271 591.558L237.47 585.5L228.745 595.749L262.909 694.969ZM182.262 650.484L262.289 698.317L260.899 695.891L227.13 597.64L187.363 644.186L182.262 650.484ZM271.442 591.957L268.234 697.554L273.067 693.819L316.813 600.635L271.442 591.957Z" fill="#535461"/>
</g>
<g id="alternate">
<path id="Vector_3" d="M472.459 514.62C472.459 514.62 529.089 515.962 543.547 529.382L536.318 367H458L472.459 514.62Z" fill="#75A6D3"/>
<path id="Vector_4" d="M354.336 577L326 596.93L408.978 670.958C408.978 670.958 421.168 662.986 414.752 653.875C414.752 653.875 393.366 634.514 392.297 607.18L385.881 598.069H382.256C376.126 598.07 370.148 596.043 365.147 592.269C360.145 588.495 356.368 583.159 354.336 577V577Z" fill="#ABB1D1"/>
<path id="Vector_5" d="M363 585.149C363 585.149 389.508 570.252 399.752 560.663C405.919 554.916 412.549 549.76 419.566 545.253L452.821 523.694L522.326 518L525.534 530.528C525.534 530.528 530.88 548.75 477.415 564.694C423.95 580.639 397.218 605.694 397.218 605.694C397.218 605.694 363 618.176 363 585.149Z" fill="#F7C5C5"/>
</g>
<g id="cycle">
<path id="Vector_6" d="M417.897 481.819H395.644V687.82H417.897V481.819Z" fill="#EC1152"/>
<path id="Vector_7" opacity="0.1" d="M417.897 481.808V497.673C410.497 498.698 402.926 499.347 395.644 499.597V481.808H417.897Z" fill="black"/>
<path id="Vector_8" d="M416.228 464.736C413.106 464.479 410 464.034 406.926 463.404C394.864 460.944 364.453 455.785 356.273 464.543C346.007 475.476 349.429 494.62 376.814 497.354C404.199 500.087 451.269 492.798 460.69 481.854C460.69 481.808 443.656 466.98 416.228 464.736Z" fill="#535461"/>
<path id="Vector_9" d="M411.908 538.331L645.551 460.853L653.25 479.997L413.619 567.498L411.908 538.331Z" fill="#EC1152"/>
<path id="Vector_10" d="M478.661 655.74L647.258 478.906L656.668 493.484L495.77 672.14L478.661 655.74Z" fill="#EC1152"/>
<path id="Vector_11" opacity="0.1" d="M696.535 600.343C691.193 601.814 685.983 603.785 680.966 606.231L670.744 575.811C676.109 573.321 681.633 571.239 687.275 569.582L696.535 600.343Z" fill="black"/>
<path id="Vector_12" d="M725.139 689.643L713.163 696.932L629.608 448.279L625.865 437.152L645.551 425.297L650.48 441.674L725.139 689.643Z" fill="#EC1152"/>
<path id="Vector_13" opacity="0.1" d="M650.48 441.674L629.608 448.279L625.865 437.152L645.551 425.297L650.48 441.674Z" fill="black"/>
<path id="Vector_14" d="M514.879 468.751L632.128 425.906C632.128 425.906 652.669 428.639 644.96 446.873L526.866 484.24C526.866 484.24 508.902 486.062 514.879 468.751Z" fill="#535461"/>
<path id="Vector_15" opacity="0.1" d="M390.939 698.298C390.938 705.284 390.431 712.26 389.421 719.163C379.156 718.377 368.548 717.238 358.155 716.099C360.464 702.557 360.176 688.657 357.31 675.236C367.436 672.958 377.776 670.783 387.871 668.813C389.916 678.49 390.945 688.379 390.939 698.298V698.298Z" fill="black"/>
<path id="Vector_16" opacity="0.1" d="M417.897 663.585V687.809H395.644V667.309C403.343 665.886 410.828 664.621 417.897 663.585Z" fill="black"/>
<path id="Vector_17" d="M274.118 697.877C274.118 697.877 453.847 647.766 468.389 666.888C482.932 686.01 498.34 711.543 453.023 720.655C407.706 729.766 270.729 705.154 270.729 705.154L274.118 697.877Z" fill="#EC1152"/>
<path id="Vector_18" opacity="0.1" d="M362.517 613.463L339.677 635.728C335.632 630.198 331.06 625.129 326.033 620.604L347.355 596.881C352.845 601.937 357.917 607.484 362.517 613.463V613.463Z" fill="black"/>
<path id="Vector_19" d="M268.13 687.821L402.488 538.331L406.776 572.964L274.974 701.487L268.13 687.821Z" fill="#EC1152"/>
<path id="Vector_20" opacity="0.1" d="M266.419 712.432C273.984 712.432 280.117 705.9 280.117 697.843C280.117 689.785 273.984 683.254 266.419 683.254C258.854 683.254 252.722 689.785 252.722 697.843C252.722 705.9 258.854 712.432 266.419 712.432Z" fill="black"/>
<path id="Vector_21" d="M264.698 712.432C272.263 712.432 278.396 705.9 278.396 697.843C278.396 689.785 272.263 683.254 264.698 683.254C257.133 683.254 251 689.785 251 697.843C251 705.9 257.133 712.432 264.698 712.432Z" fill="#535461"/>
<path id="Vector_22" opacity="0.1" d="M719.579 711.065C727.144 711.065 733.276 704.533 733.276 696.476C733.276 688.419 727.144 681.887 719.579 681.887C712.013 681.887 705.881 688.419 705.881 696.476C705.881 704.533 712.013 711.065 719.579 711.065Z" fill="black"/>
<path id="Vector_23" d="M720.434 712.887C727.999 712.887 734.132 706.356 734.132 698.298C734.132 690.241 727.999 683.709 720.434 683.709C712.869 683.709 706.736 690.241 706.736 698.298C706.736 706.356 712.869 712.887 720.434 712.887Z" fill="#535461"/>
<path id="Vector_24" opacity="0.1" d="M476.943 712.432C492.068 712.432 504.328 699.373 504.328 683.265C504.328 667.157 492.068 654.098 476.943 654.098C461.819 654.098 449.559 667.157 449.559 683.265C449.559 699.373 461.819 712.432 476.943 712.432Z" fill="black"/>
<path id="Vector_25" d="M478.665 712.432C493.789 712.432 506.05 699.373 506.05 683.265C506.05 667.157 493.789 654.098 478.665 654.098C463.541 654.098 451.28 667.157 451.28 683.265C451.28 699.373 463.541 712.432 478.665 712.432Z" fill="#535461"/>
<path id="Vector_26" d="M471.353 681.074L471.345 681.081C468.129 683.642 467.471 688.495 469.876 691.921L491.611 722.876C494.016 726.301 498.573 727.001 501.789 724.44L501.797 724.433C505.013 721.872 505.671 717.018 503.266 713.593L481.531 682.638C479.126 679.213 474.569 678.512 471.353 681.074Z" fill="#EC1152"/>
<path id="Vector_27" d="M514.112 714.96H449.954V736.599H514.112V714.96Z" fill="#EC1152"/>
<path id="Vector_28" opacity="0.1" d="M514.112 714.96H449.954V736.599H514.112V714.96Z" fill="black"/>
<g id="cycle_2">
<path id="Vector_29" d="M411.48 628.192L365.814 580.195L351.543 595.597L397.21 643.594L411.48 628.192Z" fill="#EC1152"/>
<path id="Vector_30" opacity="0.1" d="M411.48 628.192L365.814 580.195L351.543 595.597L397.21 643.594L411.48 628.192Z" fill="black"/>
<path id="Vector_31" opacity="0.1" d="M538.236 508.891C521.127 500.087 479.36 499.142 479.36 499.142L478.911 494.712L536.033 490.031L539.241 502.558C539.241 502.558 539.957 505.007 538.236 508.891Z" fill="black"/>
<path id="Vector_32" d="M519.737 412.541C519.737 412.541 645.54 407.986 648.106 425.308C650.673 442.63 522.303 435.33 522.303 435.33C522.303 435.33 512.038 424.386 519.737 412.541Z" fill="#535461"/>
<path id="Vector_33" opacity="0.05" d="M519.737 412.541C519.737 412.541 645.54 407.986 648.106 425.308C650.673 442.63 522.303 435.33 522.303 435.33C522.303 435.33 512.038 424.386 519.737 412.541Z" fill="black"/>
</g>
</g>
<g id="skin">
<path id="Vector_34" d="M593.422 269.212L590.877 303.504C590.585 307.848 590.638 312.21 591.038 316.544C591.369 320.382 591.038 327.101 587.509 337.351C582.979 350.445 580.637 364.283 580.591 378.237V417.267L555.997 412.711C555.997 412.711 557.066 358.045 552.789 348.934C548.512 339.823 555.997 258.962 555.997 258.962L593.422 269.212Z" fill="#FEB8B8"/>
<path id="Vector_35" d="M472.258 541.198L463.009 597.231C461.843 604.712 460.053 612.068 457.663 619.211C452.241 634.996 455.706 657.125 458.336 669.197C459.502 674.527 460.475 677.898 460.475 677.898L432.673 693.842L424.119 687.009V682.453L423.049 581.093C416.633 565.148 418.772 541.232 423.049 532.121C424.265 529.127 425.121 525.982 425.594 522.759C427.733 510.55 428.396 493.399 428.396 493.399C428.396 493.399 445.505 462.649 465.821 483.149C473.306 490.7 476.151 500.574 476.75 510.026C477.797 526.21 472.258 541.198 472.258 541.198Z" fill="#FBC1C1"/>
<path id="Vector_36" opacity="0.1" d="M476.749 509.992C461.918 519.377 436.116 522.03 425.594 522.725C427.733 510.516 428.396 493.365 428.396 493.365C428.396 493.365 445.505 462.615 465.821 483.115C473.306 490.665 476.151 500.54 476.749 509.992Z" fill="black"/>
<path id="Vector_37" d="M568.87 168.214C568.816 169.728 568.699 171.414 568.506 173.293C566.368 193.793 564.229 191.515 540.704 196.071C526.076 198.907 518.474 185.889 514.817 175.639C513.493 171.926 512.494 168.091 511.833 164.182L563.16 155.071C563.16 155.071 569.308 153.237 568.87 168.214Z" fill="#FBC1C1"/>
<path id="Vector_38" opacity="0.05" d="M521.703 328.716C518.948 338.936 517.418 349.486 517.148 360.115C517.148 360.115 510.646 365.81 498.67 366.949C498.333 366.223 498.075 365.459 497.9 364.671C495.762 354.421 479.722 336.199 479.722 336.199C469.029 325.949 466.891 307.727 466.891 307.727L449.247 252.491L443.366 247.366C443.366 247.366 467.96 226.866 489.346 243.949C510.732 261.033 504.316 297.477 504.316 297.477L508.593 310.005C513.031 313.991 517.543 321.017 521.703 328.716Z" fill="black"/>
</g>
<g id="pants">
<path id="Vector_39" opacity="0.05" d="M467.876 503.033C467.876 503.033 524.505 504.375 538.964 517.795L531.735 355.413H453.417L467.876 503.033Z" fill="#07263D"/>
<path id="Vector_40" d="M519.932 492.787C507.119 500.387 495.011 509.377 483.785 519.627C464.507 537.074 416.311 538.416 416.311 538.416V518.285C417.516 494.129 397.033 467.289 369.32 392.137C351.62 344.147 356.524 316.985 362.38 303.565C365.706 295.983 369.32 292.829 369.32 292.829L519.932 325.037L525.318 343.02L536.8 381.401C536.8 381.401 494.629 384.085 487.4 388.111C480.17 392.137 484.99 428.371 484.99 428.371C477.761 465.947 519.932 492.787 519.932 492.787Z" fill="#75A4C7"/>
</g>
<g id="shirt">
<path id="Vector_41" d="M595.829 220.805C593.038 243.981 592.108 273.194 592.108 273.194C567.514 293.694 548.266 267.499 548.266 267.499C525.041 274.139 514.124 295.789 508.98 314.683C506.225 324.903 504.695 335.453 504.425 346.082C504.425 346.082 497.924 351.777 485.947 352.915C474.624 353.929 458.392 350.786 438.128 334.693C396.426 301.666 359 310.777 359 310.777C359 310.777 366.485 265.221 383.594 251.555C400.703 237.888 413.534 220.805 434.92 168.416C456.306 116.028 500.148 128.556 500.148 128.556C500.148 128.556 502.286 118.306 541.851 128.556C551.487 131.246 560.407 136.278 567.909 143.259C589.071 162.21 599.336 191.604 595.829 220.805Z" fill="url(#paint0_linear)"/>
</g>
<g id="right-wheel">
<path id="Vector_42" d="M723.201 567.858C711.852 567.845 700.553 569.469 689.614 572.687C683.972 574.344 678.447 576.426 673.082 578.917C644.5 592.113 621.528 616.132 608.611 646.325C595.694 676.518 593.75 710.741 603.155 742.373C612.56 774.005 632.646 800.797 659.526 817.568C686.406 834.339 718.172 839.895 748.676 833.163C779.181 826.431 806.257 807.888 824.668 781.122C843.078 754.356 851.514 721.268 848.343 688.261C845.172 655.253 830.62 624.671 807.502 602.431C784.384 580.19 754.343 567.872 723.19 567.858H723.201ZM722.773 802.571C701.086 802.561 680.055 794.651 663.173 780.154C646.29 765.657 634.571 745.445 629.963 722.875C625.354 700.305 628.134 676.735 637.839 656.079C647.544 635.424 663.591 618.926 683.316 609.325C688.333 606.879 693.543 604.908 698.885 603.437C711.943 599.827 725.574 599.22 738.87 601.657C752.165 604.095 764.821 609.52 775.995 617.572C787.169 625.624 796.605 636.119 803.674 648.357C810.744 660.596 815.285 674.298 816.995 688.551C818.706 702.804 817.547 717.282 813.595 731.021C809.643 744.76 802.99 757.445 794.077 768.232C785.164 779.018 774.196 787.66 761.903 793.581C749.611 799.502 736.275 802.566 722.784 802.571H722.773Z" fill="#535461"/>
<path id="Vector_43" d="M728.643 817.023L721.949 705.526L721.81 705.287L715.052 707.793L683.947 804.381L634.491 767.026L713.288 706.198L713.363 705.959L713.812 705.788L718.891 701.859L636.298 652.534L616.057 676.223L619.265 698.431L714.218 700.231V702.508L617.468 700.663L613.832 675.483L641.517 643.081L682.92 591.638L683.658 593.768L692.426 583.518L725.083 589.748V588.37L727.221 588.438V590.158L775.725 599.405L730.461 695.812L723.864 700.903V701.472V702.11L828.452 663.297L816.037 767.174L727.285 706.961L724.163 705.094L776.495 794.94L728.643 817.023ZM724.366 709.581L730.621 813.652L773.447 793.858L724.366 709.581ZM638.213 767.026L682.899 800.771L712.133 709.957L638.213 767.026ZM726.237 703.636L728.472 704.968L814.391 763.279L825.939 666.622L726.237 703.636ZM718.645 695.436L721.329 700.048L721.8 699.684L725.008 592.025L693.207 585.944L684.481 596.194L718.645 695.436ZM638.031 650.963L718.057 698.796L716.667 696.37L682.899 598.118L643.121 644.676L638.031 650.963ZM727.178 592.435L723.97 697.998L728.804 694.263L772.549 601.079L727.178 592.435Z" fill="#535461"/>
</g>
<g id="skin_2">
<path id="Vector_44" d="M449.455 248.265L472.98 308.626C472.98 308.626 475.119 326.848 485.812 337.098C485.812 337.098 501.851 355.32 503.99 365.57C506.128 375.82 536.069 403.153 536.069 403.153C536.069 403.153 563.871 430.486 566.009 440.736C566.009 440.736 591.672 448.708 588.465 464.653C588.465 464.653 607.712 444.153 588.465 424.792C569.217 405.431 543.554 365.57 543.554 365.57C543.554 365.57 528.584 323.431 514.683 310.904L510.406 298.376C510.406 298.376 516.821 261.932 495.435 244.848C474.049 227.765 449.455 248.265 449.455 248.265Z" fill="#FBC1C1"/>
<path id="Vector_45" opacity="0.1" d="M463.356 679.901L435.554 695.846L427 689.013V684.457C436.607 683.73 445.94 680.731 454.321 675.676C456.887 674.127 459.304 672.601 461.239 671.257C462.362 676.53 463.356 679.901 463.356 679.901Z" fill="black"/>
<path id="Vector_46" opacity="0.1" d="M571.751 169.113C568.756 173.516 564.947 177.22 560.558 179.997C556.17 182.774 551.294 184.565 546.231 185.261C541.168 185.956 536.025 185.541 531.118 184.041C526.211 182.541 521.644 179.988 517.698 176.538C516.375 172.825 515.376 168.99 514.715 165.081L566.041 155.97C566.041 155.97 572.19 154.136 571.751 169.113Z" fill="black"/>
<path id="Vector_47" d="M581.202 139.864C581.202 150.436 577.258 160.575 570.24 168.05C563.221 175.525 553.702 179.725 543.776 179.725C533.85 179.725 524.331 175.525 517.312 168.05C510.293 160.575 506.35 150.436 506.35 139.864C506.35 139.203 506.35 138.543 506.35 137.882C506.597 127.311 510.777 117.276 517.97 109.987C525.163 102.697 534.78 98.7495 544.706 99.0123C554.632 99.2751 564.053 103.727 570.898 111.388C577.742 119.049 581.448 129.292 581.202 139.864V139.864Z" fill="#FDBCBC"/>
</g>
<g id="hat">
<path id="Vector_48" d="M485.667 117.888C487.945 125.496 498.884 125.735 504.497 131.339C507.417 134.254 508.775 138.559 511.982 141.156C516.441 144.777 522.879 143.98 528.557 143.115C539.987 141.384 552.263 140.347 562.571 145.597C566.228 147.454 569.511 150.051 573.328 151.565C577.146 153.08 581.883 153.262 584.984 150.574C587.464 148.422 588.373 144.88 590.619 142.511C592.362 140.643 594.789 139.596 596.778 137.956C601.141 134.448 603.023 128.731 604.263 123.264C606.829 112.012 607.567 99.8827 603.194 89.2114C598.82 78.5401 588.298 69.8504 576.814 70.4085C573.296 70.5793 569.864 71.5473 566.356 71.9573C557.214 72.9482 548.178 69.6796 539.004 69.1215C536.343 68.7766 533.643 69.1689 531.166 70.2604C529.298 71.3661 527.687 72.9032 526.45 74.759C522.25 80.619 519.374 87.4312 518.045 94.6667C516.976 100.122 516.923 105.065 510.646 105.907C503.514 106.91 480.844 101.796 485.667 117.888Z" fill="#AA0B57"/>
</g>
<g id="shoe">
<path id="Vector_49" d="M458.11 679.246C463.852 675.829 468.888 672.412 469.326 671C469.326 671 483.816 687.286 496.722 692.343C501.062 694.05 505.217 696.249 509.115 698.903C514.226 702.319 521.519 706.34 528.138 706.34C528.138 706.34 543.108 720.006 514.237 722.284C485.366 724.562 418 716.59 418 716.59L422.277 688.117C434.774 688.898 447.217 685.817 458.11 679.246Z" fill="#ABB1D1"/>
</g>
<g id="back">
<g id="Vector_50" opacity="0.2" filter="url(#filter0_i)">
<path d="M205.916 132.464C200.056 140.037 197.8 150.686 195.277 160.697C174.96 241.375 124.895 306.269 67.88 352.621C43.7351 372.255 14.3401 398.586 19.6224 433.789C22.4667 452.695 34.9455 466.612 44.2163 482.009C63.6669 514.251 69.9758 558.075 60.705 596.672C50.1616 640.587 20.6917 681.565 29.8128 725.97C35.4374 753.303 54.5351 772.755 72.895 789.474C101.538 815.539 131.093 839.957 161.561 862.727C181.985 877.988 203.713 892.839 227.516 894.775C248.474 896.483 269.005 887.998 288.905 879.628C306.291 872.305 324.117 864.685 338.157 850.017C347.32 840.439 354.624 828.082 364.804 820.246C388.713 801.842 419.423 813.504 446.84 821.385C511.533 839.881 580.77 833.127 642.33 802.32C736.76 755.057 808.735 655.803 901.101 602.549C940.815 579.646 984.015 565.433 1020.79 535.936C1041.51 519.141 1059.31 498.621 1073.4 475.301C1101.2 429.621 1116.23 371.378 1111.89 314.366C1107.55 257.354 1083.22 202.414 1045.02 170.229C1004.12 135.778 952.46 129.343 905.924 108.661C857.869 87.2956 815.118 50.578 767.524 27.6523C729.012 9.15305 687.099 0.0718179 644.862 1.07492C602.625 2.07802 561.134 13.14 523.434 33.4492C471.637 61.3518 419.135 126.45 361.446 131.393C320.342 134.81 238.017 90.9856 205.916 132.464Z" fill="url(#paint1_linear)" fill-opacity="0.8"/>
</g>
</g>
</g>
</g>
<defs>
<filter id="filter0_i" x="19" y="1" width="1093.63" height="897.996" filterUnits="userSpaceOnUse" color-interpolation-filters="sRGB">
<feFlood flood-opacity="0" result="BackgroundImageFix"/>
<feBlend mode="normal" in="SourceGraphic" in2="BackgroundImageFix" result="shape"/>
<feColorMatrix in="SourceAlpha" type="matrix" values="0 0 0 0 0 0 0 0 0 0 0 0 0 0 0 0 0 0 127 0" result="hardAlpha"/>
<feOffset dy="4"/>
<feGaussianBlur stdDeviation="2"/>
<feComposite in2="hardAlpha" operator="arithmetic" k2="-1" k3="1"/>
<feColorMatrix type="matrix" values="0 0 0 0 0 0 0 0 0 0 0 0 0 0 0 0 0 0 0.25 0"/>
<feBlend mode="normal" in2="shape" result="effect1_innerShadow"/>
</filter>
<linearGradient id="paint0_linear" x1="477.752" y1="124" x2="477.752" y2="353.087" gradientUnits="userSpaceOnUse">
<stop stop-color="#8C3A84"/>
<stop offset="1" stop-color="#AA2344" stop-opacity="0.93"/>
</linearGradient>
<linearGradient id="paint1_linear" x1="944.5" y1="138.5" x2="88.9999" y2="814.5" gradientUnits="userSpaceOnUse">
<stop stop-color="#271CCE"/>
<stop offset="0.0729167" stop-color="#341CCE"/>
<stop offset="1" stop-color="#DA12D2" stop-opacity="0.6"/>
</linearGradient>
<clipPath id="clip0">
<rect width="1131" height="894" fill="white"/>
</clipPath>
</defs>
</svg>
